<svg version="1.1" id="Layer_1" xmlns="http://www.w3.org/2000/svg" xmlns:xlink="http://www.w3.org/1999/xlink" x="0px" y="0px"
	 width="100%" viewBox="0 0 225 225" enable-background="new 0 0 225 225" xml:space="preserve">
<path fill="#FEFEFE" opacity="1.000000" stroke="none" 
	d="
M149.000000,226.000000 
	C99.333336,226.000000 50.166672,226.000000 1.000007,226.000000 
	C1.000004,151.000000 1.000004,76.000015 1.000002,1.000017 
	C75.999992,1.000011 150.999985,1.000011 225.999969,1.000006 
	C225.999985,75.999985 225.999985,150.999969 226.000000,225.999969 
	C200.500000,226.000000 175.000000,226.000000 149.000000,226.000000 
M160.591095,167.760071 
	C161.393250,167.506302 162.195404,167.252518 163.728043,166.923965 
	C165.151215,166.615967 166.574387,166.307983 168.327835,166.494217 
	C168.883850,166.662201 169.439880,166.830185 170.739655,166.989609 
	C173.785629,165.993454 177.024200,165.198166 177.411758,160.493942 
	C183.384979,161.183441 185.618546,158.813614 184.316040,153.146088 
	C185.886841,151.905609 187.499481,150.714218 189.021729,149.416748 
	C199.529053,140.460953 206.812164,129.578949 208.050140,115.524452 
	C209.628281,97.608315 199.482788,85.294281 186.749649,75.111626 
	C179.577576,69.376137 171.057007,65.187683 162.781601,61.022087 
	C157.623886,58.425858 151.790054,57.172871 145.716537,55.134815 
	C145.625076,39.556046 146.126556,23.013899 140.927414,6.850659 
	C139.322433,8.497066 138.154037,10.198300 137.456787,12.074613 
	C135.839081,16.427921 134.474777,20.874699 132.960938,25.267458 
	C130.252090,33.127872 127.381393,40.935314 124.829376,48.845882 
	C123.385056,53.322887 120.136551,52.982487 116.674568,52.569252 
	C115.152939,52.387627 113.614777,51.890995 112.120850,52.007671 
	C104.733498,52.584641 97.369110,53.624626 89.975029,53.882946 
	C85.541557,54.037834 85.317833,56.046894 86.368332,59.272430 
	C88.320686,65.267120 90.363052,71.232498 92.409584,77.334229 
	C99.930847,76.833054 107.276131,76.343605 115.346123,75.805862 
	C114.785515,77.964821 114.544426,79.210045 114.139084,80.399269 
	C112.420265,85.442047 110.676445,90.476662 108.888618,95.495331 
	C108.343491,97.025597 107.628174,98.495247 106.372505,100.078110 
	C106.346184,100.753838 106.319855,101.429565 106.163170,102.740654 
	C105.840141,103.519356 105.517120,104.298058 104.387482,105.038757 
	C101.985153,106.456932 99.582825,107.875114 96.875916,109.473099 
	C97.424538,111.469467 98.004013,113.578110 98.594002,115.725044 
	C100.321899,115.052048 101.657303,114.531921 103.034843,114.595840 
	C103.339912,115.062897 103.644981,115.529961 104.255028,116.534401 
	C104.825195,117.058029 105.395355,117.581650 105.979622,118.548141 
	C105.979622,118.548141 105.997841,118.990860 106.010994,119.464981 
	C106.010994,119.464981 106.031219,119.938858 105.755951,120.565804 
	C105.511826,123.580055 105.128014,126.593185 105.103622,129.609207 
	C105.095695,130.590118 105.817673,131.796539 106.570885,132.519363 
	C108.259094,134.139465 110.176414,135.520828 111.250366,136.999969 
	C110.500290,136.999985 109.750206,136.999985 108.606789,136.609528 
	C107.405159,137.072922 106.203522,137.536316 105.000572,138.500763 
	C105.000175,138.667786 104.999779,138.834808 104.236801,139.013031 
	C100.626457,140.590866 97.162186,140.629639 93.231468,138.032425 
	C92.164963,138.357925 91.098457,138.683426 89.236198,139.004074 
	C87.825760,139.671875 86.415329,140.339676 84.212051,141.013443 
	C81.763527,141.567108 78.623528,138.181290 76.229919,142.296936 
	C75.849991,142.332367 75.470062,142.367813 74.801170,141.744904 
	C73.534546,140.876816 72.267921,140.008743 70.607605,138.870834 
	C70.337936,140.266632 70.168808,141.142029 69.454895,142.279175 
	C68.861710,142.354919 68.268532,142.430649 66.788162,142.209396 
	C65.233391,142.945419 62.489563,143.489243 62.334030,144.451447 
	C61.729042,148.194122 60.962452,152.343445 65.113182,155.514938 
	C65.039139,155.670334 64.965088,155.825729 64.061440,155.990524 
	C60.350426,156.681137 56.639412,157.371735 52.487984,157.830139 
	C52.191082,157.644714 51.997578,157.382874 52.580994,156.763657 
	C53.729408,155.943497 54.877827,155.123337 55.398235,154.751663 
	C52.618107,153.615387 49.997314,153.231308 48.394695,151.747528 
	C44.959023,148.566605 39.628403,146.450409 40.474094,140.209015 
	C40.514675,139.909515 39.501144,139.414902 38.930462,139.097504 
	C38.142181,138.659088 36.917080,138.518845 36.561062,137.874207 
	C34.963142,134.980988 33.606754,131.954376 31.943253,128.170044 
	C31.997398,126.786835 32.051544,125.403618 32.598904,123.556419 
	C33.171371,122.203583 33.743839,120.850746 34.297283,119.542862 
	C35.601677,119.829796 36.646248,120.059570 37.690819,120.289345 
	C34.944553,116.673431 35.244072,114.046432 38.730972,111.502419 
	C39.311184,111.079109 38.787498,109.142761 38.986076,107.298859 
	C39.122753,106.893555 39.259430,106.488258 39.780270,106.046440 
	C39.780270,106.046440 40.164890,106.015060 40.575741,105.814384 
	C40.819550,105.605202 40.960655,105.341118 41.000336,104.993393 
	C41.000336,104.993393 41.027023,105.004257 41.781578,105.005928 
	C42.836811,103.652481 43.892044,102.299034 44.999847,101.000000 
	C44.999847,101.000000 44.946213,100.945930 45.562340,101.057541 
	C46.264259,101.441696 46.966179,101.825844 46.823704,101.747871 
	C49.146091,100.007072 51.035053,98.485153 53.030056,97.117989 
	C57.084778,94.339302 61.164967,91.594223 65.310783,88.954872 
	C66.190186,88.395020 67.553612,87.859497 68.424377,88.142494 
	C73.737450,89.869278 74.729790,85.069473 75.948006,82.402649 
	C77.423050,79.173637 75.722351,75.996246 71.381317,74.634773 
	C71.381317,74.634773 71.371490,74.150551 72.011528,73.836388 
	C70.781403,68.446381 69.578575,63.049263 68.184967,57.701862 
	C68.144547,57.546772 66.085670,57.917725 64.613220,58.208553 
	C64.613220,58.208553 64.235703,58.105721 63.353287,58.009102 
	C59.715717,58.725975 56.041409,59.309158 52.476116,60.289001 
	C51.869492,60.455719 51.730267,62.323128 51.343952,63.284428 
	C51.343952,63.284428 51.300529,63.400974 50.572823,63.100056 
	C47.210579,61.524246 45.743324,62.607338 45.688606,66.793457 
	C42.092346,69.184235 38.496090,71.575020 34.475731,74.174911 
	C34.206215,74.369888 34.040676,74.630836 33.998081,75.001976 
	C33.998081,75.001976 33.959389,74.973160 33.269722,74.945877 
	C28.613695,75.135330 26.610874,78.916595 24.151360,81.915665 
	C22.888630,83.455391 22.248510,85.505722 20.999538,87.005547 
	C20.999538,87.005547 21.322906,87.329987 20.582932,87.137283 
	C16.174139,87.315025 17.866844,90.176186 18.225193,92.777100 
	C18.225193,92.777100 17.980545,92.982346 17.249895,93.060799 
	C16.356586,93.757889 14.854515,94.321373 14.667521,95.173470 
	C13.326775,101.282898 11.897914,107.415359 11.275884,113.618599 
	C11.038172,115.989204 12.841598,118.564476 14.012614,121.627594 
	C14.105963,122.270958 14.199310,122.914322 13.923358,124.269196 
	C13.080371,127.790199 17.534035,138.509308 20.494181,139.842987 
	C21.191559,140.157181 22.107214,139.986908 22.995838,140.016922 
	C22.995838,140.016922 22.954943,140.081909 22.950739,140.837738 
	C23.072285,145.453339 26.586884,146.674683 30.000305,148.000000 
	C30.000305,148.000000 30.058647,147.942764 30.066290,148.655960 
	C33.138348,152.251511 34.488632,158.232727 41.233612,156.893463 
	C41.233612,156.893463 41.262066,156.716751 41.168987,157.479691 
	C43.736282,158.704895 46.303577,159.930099 48.955769,161.765930 
	C49.966812,162.174042 50.977852,162.582153 52.546165,163.483368 
	C53.442417,164.627060 54.396458,166.785675 55.224907,166.738510 
	C58.785709,166.535782 62.609943,166.342331 65.768944,164.899292 
	C69.500175,163.194885 72.981552,162.014053 77.809174,162.992233 
	C78.868507,162.991959 79.927834,162.991684 81.828171,162.997284 
	C83.233376,162.987640 84.638588,162.978012 86.768799,162.990768 
	C87.493767,162.980469 88.218735,162.970169 89.876686,162.988083 
	C93.600807,162.980774 97.324936,162.973450 101.785728,162.992279 
	C102.523201,162.992584 103.260681,162.992889 103.920502,163.732178 
	C103.178040,165.699112 102.435585,167.666031 101.600334,169.878799 
	C96.888641,167.710999 91.204315,173.462234 87.896317,167.262985 
	C85.911209,167.936279 84.274994,168.539566 82.609413,169.046356 
	C78.869438,170.184357 77.438217,174.893326 79.937843,178.728867 
	C79.547157,179.818069 79.156471,180.907257 78.061020,181.981400 
	C76.496773,182.195969 73.592422,182.314697 73.569191,182.639496 
	C73.217941,187.550690 73.244865,192.488937 72.816589,197.940033 
	C72.150650,200.610901 71.484703,203.281769 70.181229,206.275406 
	C69.013092,209.436981 67.844955,212.598557 66.676819,215.760132 
	C67.299667,216.106445 67.922523,216.452759 68.545380,216.799057 
	C72.597961,212.851120 76.650543,208.903168 81.331909,204.637909 
	C86.255371,199.109222 91.178841,193.580536 96.730331,188.343948 
	C98.250183,188.825272 99.770027,189.306595 102.759735,190.253403 
	C102.857079,186.062271 102.938515,182.555649 103.256500,178.383011 
	C103.824394,176.623489 104.392288,174.863983 104.991020,172.411194 
	C105.216011,169.828110 105.951843,170.076736 107.583893,171.669281 
	C108.045921,172.120117 109.791191,171.255890 110.947937,170.994781 
	C110.800865,170.493378 110.653793,169.991959 110.506721,169.490555 
	C108.526390,169.084595 106.546059,168.678650 104.565727,168.272690 
	C104.469513,167.710052 104.373299,167.147415 104.277084,166.584778 
	C109.649445,165.112762 115.021805,163.640747 119.511177,162.410675 
	C124.687569,163.339127 129.300385,164.166504 134.287613,165.043594 
	C134.287613,165.043594 134.664047,165.012680 134.818680,165.759583 
	C134.964279,168.673309 133.511322,172.654602 138.998123,172.832504 
	C139.173111,174.161484 139.348099,175.490463 139.527344,176.851730 
	C149.480576,174.914993 149.480576,174.914993 149.949417,173.269257 
	C147.269852,172.475388 144.612900,171.688232 142.334854,170.213928 
	C147.508072,169.389389 152.681305,168.564850 158.136017,168.254471 
	C158.757950,168.173798 159.379898,168.093109 160.591095,167.760071 
M136.661057,176.182770 
	C136.249344,175.519882 135.837631,174.857010 135.425919,174.194138 
	C135.016144,174.596603 134.606369,174.999069 134.196579,175.401520 
	C134.852509,175.824020 135.508453,176.246506 136.661057,176.182770 
M19.441898,142.707703 
	C19.709595,142.988663 19.977289,143.269623 20.244986,143.550583 
	C20.361055,143.439453 20.584301,143.238007 20.577721,143.230194 
	C20.328108,142.933929 20.057384,142.655457 19.441898,142.707703 
M112.589783,173.516937 
	C112.589783,173.516937 112.476608,173.585052 112.589783,173.516937 
z"/>
<path fill="#1E1D7F" opacity="1.000000" stroke="none" 
	d="
M138.990524,172.006302 
	C133.511322,172.654602 134.964279,168.673309 134.842865,164.993042 
	C134.841003,163.142929 134.814957,162.059357 134.903625,160.793747 
	C135.018341,160.611710 135.102570,160.189392 135.433319,160.152771 
	C136.180252,159.986145 136.596436,159.856125 137.383820,159.687592 
	C140.461349,158.409576 143.167694,157.170090 146.159393,155.842804 
	C147.425964,155.084930 148.407166,154.414871 149.739746,153.617218 
	C153.048645,151.593307 156.006180,149.696976 159.302521,147.801453 
	C161.890656,145.847626 164.410233,144.127335 166.343018,141.898254 
	C175.235474,131.642548 180.409576,119.968567 175.666595,106.460266 
	C171.668335,95.073036 163.724945,86.815071 151.694092,83.218094 
	C149.004868,82.414062 146.375381,81.410248 143.636765,80.470398 
	C142.881638,83.522957 142.324127,85.776619 141.475250,88.229736 
	C139.782166,94.617393 138.380493,100.805603 137.020874,107.326569 
	C137.076263,108.105011 137.089584,108.550705 136.918076,109.284561 
	C136.626404,110.010208 136.519577,110.447708 136.228271,111.173492 
	C135.823853,112.576347 135.603928,113.690926 135.190033,115.090851 
	C133.018143,120.589256 131.040237,125.802307 128.647385,131.061035 
	C127.123459,131.157043 126.014503,131.207413 124.915680,131.159576 
	C124.925827,131.061371 125.025604,130.891006 124.719223,130.615448 
	C119.434624,129.689575 114.456406,129.039246 109.486572,128.363983 
	C109.494957,128.339035 109.546898,128.330490 109.664436,127.977081 
	C109.435158,127.036850 109.088341,126.450020 108.734116,125.810349 
	C108.726723,125.757507 108.818710,125.703415 108.855865,125.306961 
	C108.486565,124.323364 108.080109,123.736229 107.747810,123.137802 
	C107.821976,123.126518 107.777245,123.269730 107.767868,123.023041 
	C107.670357,122.432434 107.463432,122.189835 107.041313,121.744202 
	C106.640350,120.939522 106.335785,120.439194 106.031219,119.938858 
	C106.031219,119.938858 106.010994,119.464981 106.241638,119.168282 
	C106.303360,118.616150 106.134438,118.360710 105.965523,118.105278 
	C105.395355,117.581650 104.825195,117.058029 104.198593,115.933426 
	C104.047600,114.889816 103.953049,114.447182 103.855049,113.577759 
	C104.299110,110.459579 104.746605,107.768166 105.194092,105.076759 
	C105.517120,104.298058 105.840141,103.519356 106.453629,102.232971 
	C106.826317,101.147736 106.908554,100.570198 106.990784,99.992661 
	C107.628174,98.495247 108.343491,97.025597 108.888618,95.495331 
	C110.676445,90.476662 112.420265,85.442047 114.139084,80.399269 
	C114.544426,79.210045 114.785515,77.964821 115.346123,75.805862 
	C107.276131,76.343605 99.930847,76.833054 92.409584,77.334229 
	C90.363052,71.232498 88.320686,65.267120 86.368332,59.272430 
	C85.317833,56.046894 85.541557,54.037834 89.975029,53.882946 
	C97.369110,53.624626 104.733498,52.584641 112.120850,52.007671 
	C113.614777,51.890995 115.152939,52.387627 116.674568,52.569252 
	C120.136551,52.982487 123.385056,53.322887 124.829376,48.845882 
	C127.381393,40.935314 130.252090,33.127872 132.960938,25.267458 
	C134.474777,20.874699 135.839081,16.427921 137.456787,12.074613 
	C138.154037,10.198300 139.322433,8.497066 140.927414,6.850659 
	C146.126556,23.013899 145.625076,39.556046 145.716537,55.134815 
	C151.790054,57.172871 157.623886,58.425858 162.781601,61.022087 
	C171.057007,65.187683 179.577576,69.376137 186.749649,75.111626 
	C199.482788,85.294281 209.628281,97.608315 208.050140,115.524452 
	C206.812164,129.578949 199.529053,140.460953 189.021729,149.416748 
	C187.499481,150.714218 185.886841,151.905609 183.741714,153.524384 
	C180.086853,155.886276 177.006302,157.869873 173.568619,159.924225 
	C171.143356,160.720398 169.075241,161.445831 166.700165,162.120789 
	C165.946518,162.427460 165.499832,162.784607 164.729416,163.089218 
	C163.913605,163.633209 163.421524,164.229736 162.582977,164.881073 
	C160.860138,165.625839 159.483749,166.315781 157.971375,167.164322 
	C157.835373,167.322906 157.854523,167.740295 157.854523,167.740295 
	C152.681305,168.564850 147.508072,169.389389 141.838303,170.643494 
	C140.558014,171.384140 139.774261,171.695221 138.990524,172.006302 
z"/>
<path fill="#FBFCFC" opacity="1.000000" stroke="none" 
	d="
M124.905540,131.257782 
	C126.014503,131.207413 127.123459,131.157043 129.021240,131.013519 
	C135.031891,130.018692 134.619293,125.163582 135.818726,121.736504 
	C136.523254,119.723457 135.583939,117.135086 135.384018,114.805496 
	C135.603928,113.690926 135.823853,112.576347 136.567627,111.194847 
	C137.582581,110.615150 138.073654,110.302383 138.564743,109.989616 
	C138.077469,109.658546 137.590179,109.327469 137.102905,108.996399 
	C137.089584,108.550705 137.076263,108.105011 137.196136,107.168381 
	C137.601242,106.133293 137.873154,105.589142 138.570435,105.040993 
	C140.212372,104.848183 141.428925,104.659378 142.645493,104.470566 
	C142.665955,103.995178 142.686417,103.519791 142.706879,103.044395 
	C141.487381,102.695740 140.267899,102.347084 139.023911,101.629150 
	C139.403503,99.843857 139.807602,98.427834 140.551422,97.005066 
	C142.079803,96.590988 143.268433,96.183647 144.457077,95.776299 
	C144.459564,95.448906 144.462051,95.121521 144.464539,94.794136 
	C143.307373,94.529419 142.150208,94.264709 140.982666,93.620056 
	C141.237076,91.503517 141.501846,89.766899 141.766632,88.030289 
	C142.324127,85.776619 142.881638,83.522957 143.636765,80.470398 
	C146.375381,81.410248 149.004868,82.414062 151.694092,83.218094 
	C163.724945,86.815071 171.668335,95.073036 175.666595,106.460266 
	C180.409576,119.968567 175.235474,131.642548 166.343018,141.898254 
	C164.410233,144.127335 161.890656,145.847626 159.308167,147.440552 
	C158.083832,146.539917 157.010239,145.369675 156.331512,145.565842 
	C152.304642,146.729614 149.814453,149.416183 149.388382,153.744812 
	C148.407166,154.414871 147.425964,155.084930 145.888550,155.628540 
	C143.166794,153.238312 141.001251,150.974533 138.856033,148.506332 
	C138.876373,148.301910 139.135406,147.982178 139.342636,147.850800 
	C139.801376,147.469208 139.905716,147.167969 139.855591,146.869476 
	C139.848282,146.923264 139.782516,146.836899 140.177795,146.884338 
	C141.346970,146.313950 142.120880,145.696121 142.894791,145.078293 
	C142.168610,144.421738 141.442444,143.765167 140.370972,143.049072 
	C139.332123,142.897827 138.638596,142.806122 137.669495,142.495789 
	C135.496460,143.040375 133.618759,143.859528 131.692413,144.541199 
	C130.839508,144.843018 129.888168,144.866592 128.879517,144.793060 
	C128.579391,144.290649 128.315247,144.106094 127.740707,144.018311 
	C127.496315,144.020599 127.007523,144.021469 126.999283,143.639450 
	C126.052895,141.140930 125.114731,139.024445 124.176575,136.907944 
	C123.600800,136.882202 123.025032,136.856476 122.449257,136.830734 
	C121.959473,138.547195 121.469681,140.263657 120.613190,141.944733 
	C115.015617,140.000778 113.957397,145.841599 110.473206,147.176956 
	C109.638161,142.068802 109.638161,142.068802 106.668167,141.970642 
	C105.898537,141.916473 105.459602,141.873016 105.013847,141.476105 
	C105.004478,140.415726 105.001938,139.708786 104.999390,139.001831 
	C104.999779,138.834808 105.000175,138.667786 105.314667,138.385986 
	C106.752541,137.847473 107.876335,137.423737 109.000130,137.000000 
	C109.750206,136.999985 110.500290,136.999985 111.908112,136.743042 
	C112.924698,133.812714 114.295097,132.878906 117.115997,132.876907 
	C119.712891,132.875061 122.309059,131.838516 124.905540,131.257782 
M114.295746,139.433136 
	C114.010704,139.705154 113.725662,139.977158 113.440620,140.249161 
	C113.553413,140.367111 113.758049,140.593811 113.765755,140.587311 
	C114.066391,140.333435 114.349083,140.058319 114.295746,139.433136 
M144.482025,143.589172 
	C144.482025,143.589172 144.415237,143.477753 144.482025,143.589172 
z"/>
<path fill="#EF670D" opacity="1.000000" stroke="none" 
	d="
M17.980545,92.982346 
	C17.980545,92.982346 18.225193,92.777100 18.501808,92.401718 
	C19.626585,90.460884 20.474745,88.895439 21.322906,87.329987 
	C21.322906,87.329987 20.999538,87.005547 21.491894,87.093781 
	C25.975962,83.112389 29.967676,79.042778 33.959389,74.973160 
	C33.959389,74.973160 33.998081,75.001976 34.251698,74.942497 
	C34.636818,74.577278 34.768326,74.271538 34.899830,73.965797 
	C38.496090,71.575020 42.092346,69.184235 46.240623,66.478088 
	C48.295269,65.242134 49.797901,64.321556 51.300529,63.400978 
	C51.300529,63.400974 51.343952,63.284428 51.717606,63.304596 
	C56.139404,61.585083 60.187553,59.845402 64.235703,58.105721 
	C64.235703,58.105721 64.613220,58.208553 65.018463,58.405388 
	C67.406303,63.784996 69.388893,68.967773 71.371490,74.150551 
	C71.371490,74.150551 71.381317,74.634773 71.559753,75.226639 
	C74.118439,83.120483 73.982880,82.845787 67.335968,86.125992 
	C59.278160,90.102478 50.635841,93.337120 44.946213,100.945930 
	C44.946213,100.945930 44.999847,101.000000 44.670509,101.079582 
	C43.236458,102.440857 42.131741,103.722557 41.027023,105.004257 
	C41.027023,105.004257 41.000336,104.993393 40.768642,105.090248 
	C40.187981,105.362022 40.063961,105.638008 40.164890,106.015060 
	C40.164890,106.015060 39.780270,106.046440 39.271729,106.142662 
	C38.485069,106.790741 38.206947,107.342598 37.958267,107.928375 
	C37.987709,107.962311 37.899208,107.946777 37.673191,108.058777 
	C37.305386,108.466217 37.163601,108.761665 37.010193,109.030319 
	C36.998566,109.003525 37.055794,109.015221 36.803398,109.118973 
	C36.418343,109.547035 36.285683,109.871330 36.139889,110.144310 
	C36.126751,110.092987 36.230385,110.115051 35.922302,110.225784 
	C35.451740,110.934731 35.289265,111.532944 35.086796,112.090668 
	C35.046803,112.050179 35.158340,112.072891 34.815437,112.205322 
	C33.984306,113.901306 33.496086,115.464867 33.000305,117.016296 
	C32.992741,117.004158 33.020790,116.999092 32.635250,117.083694 
	C31.710270,121.201736 30.766403,125.236198 30.776674,129.268234 
	C30.783279,131.861847 32.192616,134.451904 33.193436,137.305664 
	C37.509510,146.024384 43.652416,152.537277 51.907467,157.044617 
	C51.997578,157.382874 52.191082,157.644714 52.656498,158.267029 
	C51.930393,159.450562 51.035774,160.197174 49.854195,160.738037 
	C46.798851,159.260437 44.030457,157.988586 41.262066,156.716751 
	C41.262066,156.716751 41.233612,156.893463 41.084106,156.513596 
	C37.309284,153.403412 33.683968,150.673080 30.058647,147.942764 
	C30.058647,147.942764 30.000305,148.000000 29.950047,147.648254 
	C27.584841,144.891632 25.269894,142.486771 22.954945,140.081909 
	C22.954943,140.081909 22.995838,140.016922 22.912525,139.684021 
	C19.983692,134.086655 17.138174,128.822174 14.292658,123.557686 
	C14.199310,122.914322 14.105963,122.270958 13.921875,120.914894 
	C12.109458,110.655609 14.406101,101.721588 17.980545,92.982346 
z"/>
<path fill="#1E1D80" opacity="1.000000" stroke="none" 
	d="
M70.818756,205.952637 
	C71.484703,203.281769 72.150650,200.610901 73.255096,197.408249 
	C75.141006,192.618256 76.588409,188.360062 78.288116,184.020782 
	C78.617912,183.638123 78.695396,183.336502 78.818390,182.774963 
	C78.831192,182.342178 78.798492,182.169327 78.765785,181.996460 
	C79.156471,180.907257 79.547157,179.818069 80.154419,178.153809 
	C80.683731,177.047150 80.996475,176.515549 81.633011,175.908554 
	C83.402206,175.090149 84.817581,173.791779 86.298813,173.711716 
	C90.226334,173.499374 94.182320,173.813507 98.516808,173.936066 
	C100.924484,173.670792 102.942329,173.387634 104.960175,173.104462 
	C104.392288,174.863983 103.824394,176.623489 102.801033,178.796478 
	C100.264481,182.157257 98.183395,185.104553 96.102310,188.051849 
	C91.178841,193.580536 86.255371,199.109222 80.674950,204.817474 
	C77.017090,207.337784 74.016190,209.678528 71.007378,212.009567 
	C70.999466,211.999878 70.979874,211.983978 70.977356,211.606812 
	C70.922806,209.470657 70.870781,207.711639 70.818756,205.952637 
z"/>
<path fill="#FAFAF6" opacity="1.000000" stroke="none" 
	d="
M104.975601,172.757843 
	C102.942329,173.387634 100.924484,173.670792 98.305466,173.566254 
	C92.672462,172.702805 87.640625,172.227051 82.369499,171.728653 
	C82.007660,173.180862 81.658432,174.582397 81.309212,175.983948 
	C80.996475,176.515549 80.683731,177.047150 80.143333,177.789795 
	C77.438217,174.893326 78.869438,170.184357 82.609413,169.046356 
	C84.274994,168.539566 85.911209,167.936279 87.896317,167.262985 
	C91.204315,173.462234 96.888641,167.710999 101.600334,169.878799 
	C102.435585,167.666031 103.178040,165.699112 103.922600,162.914520 
	C103.872162,161.801529 103.819626,161.506180 103.979195,161.170380 
	C104.474335,161.076599 104.758888,161.033234 105.390282,161.014664 
	C106.441498,160.593521 107.147392,160.157532 107.894058,159.787354 
	C107.934830,159.853165 107.801895,159.773743 108.214111,159.847916 
	C110.805489,160.211304 112.984642,160.500504 115.537033,160.839249 
	C114.897156,159.650528 114.451614,158.822830 114.240936,157.720596 
	C116.038925,155.925827 117.602043,154.405579 119.457397,153.065460 
	C120.457474,154.314514 121.165314,155.383453 121.873161,156.452377 
	C123.284340,155.372406 124.695518,154.292435 126.471466,153.146301 
	C127.789597,153.080170 128.742966,153.080170 129.991882,153.080170 
	C128.883041,155.254684 127.931580,157.120575 126.707367,159.020477 
	C126.730659,159.663727 127.026718,160.272964 127.601585,160.902679 
	C128.245117,160.999207 128.609833,161.075226 129.064865,161.497742 
	C130.741180,162.894104 132.327179,163.943985 133.913193,164.993866 
	C129.300385,164.166504 124.687569,163.339127 119.511177,162.410675 
	C115.021805,163.640747 109.649445,165.112762 104.277084,166.584778 
	C104.373299,167.147415 104.469513,167.710052 104.565727,168.272690 
	C106.546059,168.678650 108.526390,169.084595 110.506721,169.490555 
	C110.653793,169.991959 110.800865,170.493378 110.947937,170.994781 
	C109.791191,171.255890 108.045921,172.120117 107.583893,171.669281 
	C105.951843,170.076736 105.216011,169.828110 104.975601,172.757843 
z"/>
<path fill="#FAFAF6" opacity="1.000000" stroke="none" 
	d="
M77.015213,162.989746 
	C72.981552,162.014053 69.500175,163.194885 65.768944,164.899292 
	C62.609943,166.342331 58.785709,166.535782 55.224907,166.738510 
	C54.396458,166.785675 53.442417,164.627060 52.414185,162.946518 
	C53.204308,161.937454 54.126415,161.465256 55.306248,161.193039 
	C56.387798,161.665375 57.211624,161.937729 58.333771,162.453369 
	C61.155838,162.426590 64.281212,164.773758 66.283539,160.810318 
	C68.188789,159.056641 69.810730,157.495560 71.612572,155.707657 
	C71.533073,154.653458 71.273666,153.826065 70.915298,152.850357 
	C70.816338,152.702026 70.835419,152.345932 70.894592,151.945816 
	C70.729691,150.045883 70.505600,148.546066 70.441101,146.755280 
	C71.373703,146.075211 72.146713,145.686111 73.025635,145.642090 
	C74.934319,145.836609 76.737099,145.686035 79.339760,145.468658 
	C79.603210,147.613617 79.888336,149.935059 80.134903,152.461273 
	C80.096352,152.666077 79.803749,152.963470 79.463280,153.015289 
	C78.225502,154.823547 77.328186,156.580002 76.282608,158.221939 
	C76.134338,158.107437 76.458809,158.294769 76.113281,158.345367 
	C76.011177,159.198013 76.254593,160.000076 76.638809,160.755127 
	C76.779610,160.708115 77.041206,160.848495 77.029305,161.205383 
	C77.016670,162.038086 77.015938,162.513916 77.015213,162.989746 
z"/>
<path fill="#DA7227" opacity="1.000000" stroke="none" 
	d="
M70.835419,152.345932 
	C70.835419,152.345932 70.816338,152.702026 70.905258,153.224304 
	C71.140350,154.475891 71.286507,155.205185 71.432663,155.934479 
	C69.810730,157.495560 68.188789,159.056641 65.887383,160.846786 
	C62.817093,161.453934 60.426273,161.832001 58.035454,162.210052 
	C57.211624,161.937729 56.387798,161.665375 55.455757,160.844513 
	C56.638866,159.839737 57.975170,159.480103 59.211147,158.904877 
	C61.140182,158.007080 63.001205,156.963150 64.891045,155.981125 
	C64.965088,155.825729 65.039139,155.670334 65.243439,154.963806 
	C64.712547,150.167786 61.752316,145.478455 67.675346,142.506378 
	C68.268532,142.430649 68.861710,142.354919 70.029022,142.324524 
	C72.098816,142.380997 73.594475,142.392120 75.090134,142.403244 
	C75.470062,142.367813 75.849991,142.332367 76.417770,142.576492 
	C75.376991,143.669708 74.148361,144.483353 72.919731,145.297012 
	C72.146713,145.686111 71.373703,146.075211 70.170380,146.965546 
	C70.105186,149.093155 70.470306,150.719543 70.835419,152.345932 
z"/>
<path fill="#F7EFD8" opacity="1.000000" stroke="none" 
	d="
M103.767097,161.210846 
	C103.819626,161.506180 103.872162,161.801529 103.961426,162.545044 
	C103.260681,162.992889 102.523201,162.992584 101.404755,162.564514 
	C100.601746,160.500885 100.683311,157.945786 99.669403,157.390320 
	C95.558449,155.138184 90.584953,157.934692 88.943703,162.959854 
	C88.218735,162.970169 87.493767,162.980469 86.320740,162.615997 
	C84.524918,161.792267 83.177170,161.343307 82.046486,160.624435 
	C83.902275,157.563858 85.540993,154.773163 87.494507,152.039703 
	C89.194565,152.100662 90.658524,152.388321 91.943970,152.031998 
	C93.361816,151.638962 94.615852,150.654999 95.987923,149.980377 
	C96.034607,150.032318 96.129288,150.132767 96.072067,150.520599 
	C95.463005,154.328354 97.833961,154.020035 99.954926,154.372894 
	C101.214874,156.894180 102.490990,159.052505 103.767097,161.210846 
z"/>
<path fill="#F8F5E8" opacity="1.000000" stroke="none" 
	d="
M45.254276,101.001740 
	C50.635841,93.337120 59.278160,90.102478 67.335968,86.125992 
	C73.982880,82.845787 74.118439,83.120483 71.722557,75.405914 
	C75.722351,75.996246 77.423050,79.173637 75.948006,82.402649 
	C74.729790,85.069473 73.737450,89.869278 68.424377,88.142494 
	C67.553612,87.859497 66.190186,88.395020 65.310783,88.954872 
	C61.164967,91.594223 57.084778,94.339302 53.030056,97.117989 
	C51.035053,98.485153 49.146091,100.007072 46.823704,101.747871 
	C46.966179,101.825844 46.264259,101.441696 45.254276,101.001740 
z"/>
<path fill="#F7F2E2" opacity="1.000000" stroke="none" 
	d="
M52.244232,156.904144 
	C43.652416,152.537277 37.509510,146.024384 33.175957,136.900299 
	C32.679924,133.813828 32.421581,131.394852 32.163235,128.975876 
	C33.606754,131.954376 34.963142,134.980988 36.561062,137.874207 
	C36.917080,138.518845 38.142181,138.659088 38.930462,139.097504 
	C39.501144,139.414902 40.514675,139.909515 40.474094,140.209015 
	C39.628403,146.450409 44.959023,148.566605 48.394695,151.747528 
	C49.997314,153.231308 52.618107,153.615387 55.398235,154.751663 
	C54.877827,155.123337 53.729408,155.943497 52.244232,156.904144 
z"/>
<path fill="#F7EFD8" opacity="1.000000" stroke="none" 
	d="
M73.025635,145.642090 
	C74.148361,144.483353 75.376991,143.669708 76.704407,142.584961 
	C78.623528,138.181290 81.763527,141.567108 85.058990,141.013702 
	C89.702454,141.828049 94.954323,138.794128 97.204796,145.222244 
	C94.216240,146.251312 91.645294,147.136597 89.118958,147.665924 
	C90.096489,146.124924 91.029411,144.939865 92.244690,143.396118 
	C88.293877,143.396118 84.969551,143.396118 80.392273,143.396118 
	C85.424149,147.367554 80.864655,149.473785 80.173462,152.256485 
	C79.888336,149.935059 79.603210,147.613617 79.339760,145.468658 
	C76.737099,145.686035 74.934319,145.836609 73.025635,145.642090 
z"/>
<path fill="#F8F9F8" opacity="1.000000" stroke="none" 
	d="
M89.074341,148.021881 
	C91.645294,147.136597 94.216240,146.251312 97.204796,145.222244 
	C94.954323,138.794128 89.702454,141.828049 85.455414,141.010712 
	C86.415329,140.339676 87.825760,139.671875 89.852272,139.264496 
	C91.628136,139.028763 92.787918,138.532639 93.947708,138.036499 
	C97.162186,140.629639 100.626457,140.590866 104.618095,139.007431 
	C105.001938,139.708786 105.004478,140.415726 104.595123,141.532684 
	C100.869583,141.539444 98.698257,142.588791 98.012779,146.202698 
	C97.761406,147.527908 96.656693,148.691254 95.941238,149.928436 
	C94.615852,150.654999 93.361816,151.638962 91.943970,152.031998 
	C90.658524,152.388321 89.194565,152.100662 87.485970,151.719528 
	C87.799873,150.235382 88.437111,149.128632 89.074341,148.021881 
z"/>
<path fill="#F8F9F8" opacity="1.000000" stroke="none" 
	d="
M124.915680,131.159576 
	C122.309059,131.838516 119.712891,132.875061 117.115997,132.876907 
	C114.295097,132.878906 112.924698,133.812714 112.283157,136.742737 
	C110.176414,135.520828 108.259094,134.139465 106.570885,132.519363 
	C105.817673,131.796539 105.095695,130.590118 105.103622,129.609207 
	C105.128014,126.593185 105.511826,123.580055 105.893585,120.252335 
	C106.335785,120.439194 106.640350,120.939522 107.001411,122.002373 
	C107.297691,122.799835 107.537468,123.034782 107.777245,123.269730 
	C107.777245,123.269730 107.821976,123.126518 107.826439,123.492737 
	C108.160172,124.473778 108.489441,125.088593 108.818710,125.703415 
	C108.818710,125.703415 108.726723,125.757507 108.751572,126.146591 
	C109.033241,127.133949 109.290070,127.732224 109.546898,128.330490 
	C109.546898,128.330490 109.494957,128.339035 109.614174,128.759598 
	C110.869125,129.800690 111.983162,130.901840 113.144554,130.954300 
	C117.095894,131.132767 121.063934,130.941254 125.025604,130.891006 
	C125.025604,130.891006 124.925827,131.061371 124.915680,131.159576 
z"/>
<path fill="#FAFAF6" opacity="1.000000" stroke="none" 
	d="
M89.410194,162.973969 
	C90.584953,157.934692 95.558449,155.138184 99.669403,157.390320 
	C100.683311,157.945786 100.601746,160.500885 101.036423,162.551437 
	C97.324936,162.973450 93.600807,162.980774 89.410194,162.973969 
z"/>
<path fill="#F7EFD6" opacity="1.000000" stroke="none" 
	d="
M17.615219,93.021576 
	C14.406101,101.721588 12.109458,110.655609 13.772993,120.624336 
	C12.841598,118.564476 11.038172,115.989204 11.275884,113.618599 
	C11.897914,107.415359 13.326775,101.282898 14.667521,95.173470 
	C14.854515,94.321373 16.356586,93.757889 17.615219,93.021576 
z"/>
<path fill="#FAFAF6" opacity="1.000000" stroke="none" 
	d="
M167.007126,162.171265 
	C169.075241,161.445831 171.143356,160.720398 173.768524,160.208893 
	C175.214828,160.612930 176.104111,160.803070 176.993378,160.993195 
	C177.024200,165.198166 173.785629,165.993454 170.201767,166.748123 
	C169.108444,166.337753 168.552994,166.168884 167.997559,166.000000 
	C166.574387,166.307983 165.151215,166.615967 163.358658,166.599075 
	C162.969330,165.791550 162.949387,165.308899 162.929443,164.826263 
	C163.421524,164.229736 163.913605,163.633209 164.893005,163.303467 
	C165.922592,163.103912 166.464859,162.637589 167.007126,162.171265 
z"/>
<path fill="#2C2C63" opacity="1.000000" stroke="none" 
	d="
M70.499985,206.114014 
	C70.870781,207.711639 70.922806,209.470657 70.832199,211.663986 
	C70.798149,212.071960 70.906715,212.045609 71.015289,212.019257 
	C74.016190,209.678528 77.017090,207.337784 80.360558,204.976135 
	C76.650543,208.903168 72.597961,212.851120 68.545380,216.799057 
	C67.922523,216.452759 67.299667,216.106445 66.676819,215.760132 
	C67.844955,212.598557 69.013092,209.436981 70.499985,206.114014 
z"/>
<path fill="#F5F5F4" opacity="1.000000" stroke="none" 
	d="
M104.790787,105.057755 
	C104.746605,107.768166 104.299110,110.459579 103.638596,113.578506 
	C103.425583,114.006035 102.992699,114.011803 102.992699,114.011803 
	C101.657303,114.531921 100.321899,115.052048 98.594002,115.725044 
	C98.004013,113.578110 97.424538,111.469467 96.875916,109.473099 
	C99.582825,107.875114 101.985153,106.456932 104.790787,105.057755 
z"/>
<path fill="#FAFAF6" opacity="1.000000" stroke="none" 
	d="
M78.413406,181.988922 
	C78.798492,182.169327 78.831192,182.342178 78.638885,182.908493 
	C78.208183,183.530930 78.082161,183.797562 78.035797,184.101852 
	C76.588409,188.360062 75.141006,192.618256 73.438385,197.148651 
	C73.244865,192.488937 73.217941,187.550690 73.569191,182.639496 
	C73.592422,182.314697 76.496773,182.195969 78.413406,181.988922 
z"/>
<path fill="#F7EEDD" opacity="1.000000" stroke="none" 
	d="
M14.108007,123.913437 
	C17.138174,128.822174 19.983692,134.086655 22.875832,139.695328 
	C22.107214,139.986908 21.191559,140.157181 20.494181,139.842987 
	C17.534035,138.509308 13.080371,127.790199 14.108007,123.913437 
z"/>
<path fill="#F1F3F2" opacity="1.000000" stroke="none" 
	d="
M177.202576,160.743561 
	C176.104111,160.803070 175.214828,160.612930 174.125671,160.138138 
	C177.006302,157.869873 180.086853,155.886276 183.507431,153.784149 
	C185.618546,158.813614 183.384979,161.183441 177.202576,160.743561 
z"/>
<path fill="#FAFAF6" opacity="1.000000" stroke="none" 
	d="
M138.994324,172.419403 
	C139.774261,171.695221 140.558014,171.384140 141.648849,170.987061 
	C144.612900,171.688232 147.269852,172.475388 149.949417,173.269257 
	C149.480576,174.914993 149.480576,174.914993 139.527344,176.851730 
	C139.348099,175.490463 139.173111,174.161484 138.994324,172.419403 
z"/>
<path fill="#EDEFEE" opacity="1.000000" stroke="none" 
	d="
M96.416321,188.197906 
	C98.183395,185.104553 100.264481,182.157257 102.682762,179.129501 
	C102.938515,182.555649 102.857079,186.062271 102.759735,190.253403 
	C99.770027,189.306595 98.250183,188.825272 96.416321,188.197906 
z"/>
<path fill="#F8F5E8" opacity="1.000000" stroke="none" 
	d="
M71.691513,73.993469 
	C69.388893,68.967773 67.406303,63.784996 65.195816,58.322815 
	C66.085670,57.917725 68.144547,57.546772 68.184967,57.701862 
	C69.578575,63.049263 70.781403,68.446381 71.691513,73.993469 
z"/>
<path fill="#F7EFD6" opacity="1.000000" stroke="none" 
	d="
M33.614555,74.959518 
	C29.967676,79.042778 25.975962,83.112389 21.655636,87.253662 
	C22.248510,85.505722 22.888630,83.455391 24.151360,81.915665 
	C26.610874,78.916595 28.613695,75.135330 33.614555,74.959518 
z"/>
<path fill="#F7F2E2" opacity="1.000000" stroke="none" 
	d="
M38.773926,107.905586 
	C38.787498,109.142761 39.311184,111.079109 38.730972,111.502419 
	C35.244072,114.046432 34.944553,116.673431 37.690819,120.289345 
	C36.646248,120.059570 35.601677,119.829796 34.297283,119.542862 
	C33.743839,120.850746 33.171371,122.203583 32.301064,123.390564 
	C32.342407,121.149506 32.681599,119.074295 33.020790,116.999092 
	C33.020790,116.999092 32.992741,117.004158 33.243645,116.779953 
	C34.049145,115.061462 34.603741,113.567177 35.158340,112.072891 
	C35.158340,112.072891 35.046803,112.050179 35.351345,111.935219 
	C35.847385,111.251854 36.038883,110.683456 36.230385,110.115051 
	C36.230385,110.115051 36.126751,110.092987 36.393646,110.045807 
	C36.792294,109.670822 36.924046,109.343025 37.055794,109.015221 
	C37.055794,109.015221 36.998566,109.003525 37.255634,108.941307 
	C37.641541,108.568321 37.770374,108.257553 37.899208,107.946777 
	C37.899208,107.946777 37.987709,107.962311 38.169708,107.922386 
	C38.351704,107.882462 38.773926,107.905586 38.773926,107.905586 
z"/>
<path fill="#F7F2E2" opacity="1.000000" stroke="none" 
	d="
M64.476242,155.985825 
	C63.001205,156.963150 61.140182,158.007080 59.211147,158.904877 
	C57.975170,159.480103 56.638866,159.839737 55.198032,160.644531 
	C54.126415,161.465256 53.204308,161.937454 52.135544,162.699966 
	C50.977852,162.582153 49.966812,162.174042 49.230354,161.401001 
	C49.717003,161.005310 49.929073,160.974548 50.141151,160.943787 
	C51.035774,160.197174 51.930393,159.450562 52.876705,158.383148 
	C56.639412,157.371735 60.350426,156.681137 64.476242,155.985825 
z"/>
<path fill="#F7EFD8" opacity="1.000000" stroke="none" 
	d="
M67.231750,142.357880 
	C61.752316,145.478455 64.712547,150.167786 65.222549,154.706451 
	C60.962452,152.343445 61.729042,148.194122 62.334030,144.451447 
	C62.489563,143.489243 65.233391,142.945419 67.231750,142.357880 
z"/>
<path fill="#F7EEDD" opacity="1.000000" stroke="none" 
	d="
M30.062469,148.299362 
	C33.683968,150.673080 37.309284,153.403412 41.089691,156.428696 
	C34.488632,158.232727 33.138348,152.251511 30.062469,148.299362 
z"/>
<path fill="#CD7735" opacity="1.000000" stroke="none" 
	d="
M32.635250,117.083694 
	C32.681599,119.074295 32.342407,121.149506 32.054455,123.622559 
	C32.051544,125.403618 31.997398,126.786835 32.053246,128.572968 
	C32.421581,131.394852 32.679924,133.813828 32.955750,136.638184 
	C32.192616,134.451904 30.783279,131.861847 30.776674,129.268234 
	C30.766403,125.236198 31.710270,121.201736 32.635250,117.083694 
z"/>
<path fill="#F8F5E8" opacity="1.000000" stroke="none" 
	d="
M63.794495,58.057411 
	C60.187553,59.845402 56.139404,61.585083 51.733185,63.364799 
	C51.730267,62.323128 51.869492,60.455719 52.476116,60.289001 
	C56.041409,59.309158 59.715717,58.725975 63.794495,58.057411 
z"/>
<path fill="#F7EEDD" opacity="1.000000" stroke="none" 
	d="
M22.952843,140.459824 
	C25.269894,142.486771 27.584841,144.891632 29.978149,147.618774 
	C26.586884,146.674683 23.072285,145.453339 22.952843,140.459824 
z"/>
<path fill="#F7EEDD" opacity="1.000000" stroke="none" 
	d="
M49.854195,160.738037 
	C49.929073,160.974548 49.717003,161.005310 49.187904,161.095673 
	C46.303577,159.930099 43.736282,158.704895 41.215527,157.098221 
	C44.030457,157.988586 46.798851,159.260437 49.854195,160.738037 
z"/>
<path fill="#ECECE1" opacity="1.000000" stroke="none" 
	d="
M134.100403,165.018738 
	C132.327179,163.943985 130.741180,162.894104 129.433746,161.417877 
	C130.715714,160.957840 131.719086,160.924118 133.066254,160.916901 
	C133.869675,160.954193 134.329285,160.964981 134.788910,160.975784 
	C134.814957,162.059357 134.841003,163.142929 134.765564,164.619598 
	C134.664047,165.012680 134.287613,165.043594 134.100403,165.018738 
z"/>
<path fill="#F7EFD8" opacity="1.000000" stroke="none" 
	d="
M74.945648,142.074066 
	C73.594475,142.392120 72.098816,142.380997 70.301422,142.193649 
	C70.168808,141.142029 70.337936,140.266632 70.607605,138.870834 
	C72.267921,140.008743 73.534546,140.876816 74.945648,142.074066 
z"/>
<path fill="#F8F5E8" opacity="1.000000" stroke="none" 
	d="
M50.936676,63.250519 
	C49.797901,64.321556 48.295269,65.242134 46.455345,66.218842 
	C45.743324,62.607338 47.210579,61.524246 50.936676,63.250519 
z"/>
<path fill="#F7EFD6" opacity="1.000000" stroke="none" 
	d="
M20.952919,87.233635 
	C20.474745,88.895439 19.626585,90.460884 18.510609,92.242294 
	C17.866844,90.176186 16.174139,87.315025 20.952919,87.233635 
z"/>
<path fill="#FAFAF6" opacity="1.000000" stroke="none" 
	d="
M81.829414,160.894333 
	C83.177170,161.343307 84.524918,161.792267 85.958237,162.604797 
	C84.638588,162.978012 83.233376,162.987640 81.411026,162.662811 
	C80.999504,161.885864 81.005142,161.443405 81.209366,160.927658 
	C81.407951,160.854385 81.829414,160.894333 81.829414,160.894333 
z"/>
<path fill="#F8F5E8" opacity="1.000000" stroke="none" 
	d="
M41.404297,105.005096 
	C42.131741,103.722557 43.236458,102.440857 44.644226,101.052376 
	C43.892044,102.299034 42.836811,103.652481 41.404297,105.005096 
z"/>
<path fill="#FAFAF6" opacity="1.000000" stroke="none" 
	d="
M136.412720,176.425873 
	C135.508453,176.246506 134.852509,175.824020 134.196579,175.401520 
	C134.606369,174.999069 135.016144,174.596603 135.425919,174.194138 
	C135.837631,174.857010 136.249344,175.519882 136.412720,176.425873 
z"/>
<path fill="#F8F9F8" opacity="1.000000" stroke="none" 
	d="
M108.803459,136.804764 
	C107.876335,137.423737 106.752541,137.847473 105.315323,138.135468 
	C106.203522,137.536316 107.405159,137.072922 108.803459,136.804764 
z"/>
<path fill="#F1F3F2" opacity="1.000000" stroke="none" 
	d="
M162.582977,164.881073 
	C162.949387,165.308899 162.969330,165.791550 162.993408,166.636459 
	C162.195404,167.252518 161.393250,167.506302 160.143097,167.645447 
	C159.165863,167.355789 158.636627,167.180756 158.107376,167.005737 
	C159.483749,166.315781 160.860138,165.625839 162.582977,164.881073 
z"/>
<path fill="#F7EFD8" opacity="1.000000" stroke="none" 
	d="
M93.589584,138.034454 
	C92.787918,138.532639 91.628136,139.028763 90.250153,139.266907 
	C91.098457,138.683426 92.164963,138.357925 93.589584,138.034454 
z"/>
<path fill="#F7EFD8" opacity="1.000000" stroke="none" 
	d="
M81.010773,161.000931 
	C81.005142,161.443405 80.999504,161.885864 80.990524,162.659882 
	C79.927834,162.991684 78.868507,162.991959 77.412193,162.990997 
	C77.015938,162.513916 77.016670,162.038086 77.425514,161.150375 
	C78.892677,160.825974 79.951721,160.913452 81.010773,161.000931 
z"/>
<path fill="#F7EEDD" opacity="1.000000" stroke="none" 
	d="
M19.615688,142.541153 
	C20.057384,142.655457 20.328108,142.933929 20.577721,143.230194 
	C20.584301,143.238007 20.361055,143.439453 20.244984,143.550583 
	C19.977289,143.269623 19.709595,142.988663 19.615688,142.541153 
z"/>
<path fill="#F5F5F4" opacity="1.000000" stroke="none" 
	d="
M106.681641,100.035385 
	C106.908554,100.570198 106.826317,101.147736 106.518806,101.915283 
	C106.319855,101.429565 106.346184,100.753838 106.681641,100.035385 
z"/>
<path fill="#FAFAF6" opacity="1.000000" stroke="none" 
	d="
M157.971375,167.164322 
	C158.636627,167.180756 159.165863,167.355789 159.848480,167.771606 
	C159.379898,168.093109 158.757950,168.173798 157.995270,167.997375 
	C157.854523,167.740295 157.835373,167.322906 157.971375,167.164322 
z"/>
<path fill="#F1F3F2" opacity="1.000000" stroke="none" 
	d="
M168.162689,166.247101 
	C168.552994,166.168884 169.108444,166.337753 169.829895,166.752411 
	C169.439880,166.830185 168.883850,166.662201 168.162689,166.247101 
z"/>
<path fill="#CD7735" opacity="1.000000" stroke="none" 
	d="
M38.880001,107.602219 
	C38.773926,107.905586 38.351704,107.882462 38.140263,107.888458 
	C38.206947,107.342598 38.485069,106.790741 39.079651,106.160919 
	C39.259430,106.488258 39.122753,106.893555 38.880001,107.602219 
z"/>
<path fill="#F8F9F8" opacity="1.000000" stroke="none" 
	d="
M103.013771,114.303818 
	C102.992699,114.011803 103.425583,114.006035 103.642036,114.005287 
	C103.953049,114.447182 104.047600,114.889816 104.046097,115.664734 
	C103.644981,115.529961 103.339912,115.062897 103.013771,114.303818 
z"/>
<path fill="#FAFAF6" opacity="1.000000" stroke="none" 
	d="
M112.533195,173.550995 
	C112.476608,173.585052 112.589783,173.516937 112.533195,173.550995 
z"/>
<path fill="#F7EFD6" opacity="1.000000" stroke="none" 
	d="
M34.687782,74.070358 
	C34.768326,74.271538 34.636818,74.577278 34.242218,74.920380 
	C34.040676,74.630836 34.206215,74.369888 34.687782,74.070358 
z"/>
<path fill="#F7F2E2" opacity="1.000000" stroke="none" 
	d="
M40.370316,105.914719 
	C40.063961,105.638008 40.187981,105.362022 40.767998,105.104622 
	C40.960655,105.341118 40.819550,105.605202 40.370316,105.914719 
z"/>
<path fill="#F8F9F8" opacity="1.000000" stroke="none" 
	d="
M105.972572,118.326706 
	C106.134438,118.360710 106.303360,118.616150 106.235062,118.931221 
	C105.997841,118.990860 105.979622,118.548141 105.972572,118.326706 
z"/>
<path fill="#F4F3EC" opacity="1.000000" stroke="none" 
	d="
M138.835693,148.710754 
	C141.001251,150.974533 143.166794,153.238312 145.603195,155.716354 
	C143.167694,157.170090 140.461349,158.409576 137.414917,159.384613 
	C136.523026,157.990173 135.971222,156.860199 135.472168,155.727417 
	C135.524948,155.724609 135.618393,155.769760 135.980469,155.655334 
	C136.514755,154.578506 136.686981,153.616089 136.902313,152.335052 
	C137.575531,150.914520 138.205612,149.812637 138.835693,148.710754 
z"/>
<path fill="#F8F9F8" opacity="1.000000" stroke="none" 
	d="
M135.190033,115.090851 
	C135.583939,117.135086 136.523254,119.723457 135.818726,121.736504 
	C134.619293,125.163582 135.031891,130.018692 129.436203,130.967865 
	C131.040237,125.802307 133.018143,120.589256 135.190033,115.090851 
z"/>
<path fill="#F4F3EC" opacity="1.000000" stroke="none" 
	d="
M149.739746,153.617218 
	C149.814453,149.416183 152.304642,146.729614 156.331512,145.565842 
	C157.010239,145.369675 158.083832,146.539917 158.969345,147.439743 
	C156.006180,149.696976 153.048645,151.593307 149.739746,153.617218 
M153.478027,150.579803 
	C153.478027,150.579803 153.408768,150.467316 153.478027,150.579803 
z"/>
<path fill="#242464" opacity="1.000000" stroke="none" 
	d="
M140.211670,97.011803 
	C139.807602,98.427834 139.403503,99.843857 138.864273,101.849792 
	C138.534454,103.308128 138.339767,104.176567 138.145050,105.044998 
	C137.873154,105.589142 137.601242,106.133293 137.154083,106.835632 
	C138.380493,100.805603 139.782166,94.617393 141.475250,88.229736 
	C141.501846,89.766899 141.237076,91.503517 140.791595,93.878166 
	C140.477814,95.348068 140.344742,96.179932 140.211670,97.011803 
z"/>
<path fill="#1E1C5C" opacity="1.000000" stroke="none" 
	d="
M124.719223,130.615448 
	C121.063934,130.941254 117.095894,131.132767 113.144554,130.954300 
	C111.983162,130.901840 110.869125,129.800690 109.605789,128.784546 
	C114.456406,129.039246 119.434624,129.689575 124.719223,130.615448 
z"/>
<path fill="#ECECE1" opacity="1.000000" stroke="none" 
	d="
M135.419403,155.730209 
	C135.971222,156.860199 136.523026,157.990173 137.043732,159.423141 
	C136.596436,159.856125 136.180252,159.986145 135.309845,159.900116 
	C134.566879,159.452881 134.278152,159.221680 134.020813,158.687744 
	C134.507935,157.500076 134.963669,156.615143 135.419403,155.730209 
z"/>
<path fill="#F4F3EC" opacity="1.000000" stroke="none" 
	d="
M133.989441,158.990479 
	C134.278152,159.221680 134.566879,159.452881 134.979095,159.936737 
	C135.102570,160.189392 135.018341,160.611710 134.903625,160.793747 
	C134.329285,160.964981 133.869675,160.954193 133.175247,160.644806 
	C133.290100,159.894287 133.639771,159.442383 133.989441,158.990479 
z"/>
<path fill="#F8F9F8" opacity="1.000000" stroke="none" 
	d="
M136.918060,109.284561 
	C137.590179,109.327469 138.077469,109.658546 138.564743,109.989616 
	C138.073654,110.302383 137.582581,110.615150 136.752121,110.906555 
	C136.519577,110.447708 136.626404,110.010208 136.918060,109.284561 
z"/>
<path fill="#F1F3F2" opacity="1.000000" stroke="none" 
	d="
M166.700165,162.120789 
	C166.464859,162.637589 165.922592,163.103912 165.216736,163.355988 
	C165.499832,162.784607 165.946518,162.427460 166.700165,162.120789 
z"/>
<path fill="#1E1C5C" opacity="1.000000" stroke="none" 
	d="
M108.855865,125.306961 
	C108.489441,125.088593 108.160172,124.473778 107.752274,123.504028 
	C108.080109,123.736229 108.486565,124.323364 108.855865,125.306961 
z"/>
<path fill="#1E1C5C" opacity="1.000000" stroke="none" 
	d="
M109.664436,127.977081 
	C109.290070,127.732224 109.033241,127.133949 108.758972,126.199432 
	C109.088341,126.450020 109.435158,127.036850 109.664436,127.977081 
z"/>
<path fill="#1E1C5C" opacity="1.000000" stroke="none" 
	d="
M107.767868,123.023041 
	C107.537468,123.034782 107.297691,122.799835 107.097809,122.306717 
	C107.463432,122.189835 107.670357,122.432434 107.767868,123.023041 
z"/>
<path fill="#D8742D" opacity="1.000000" stroke="none" 
	d="
M134.020813,158.687744 
	C133.639771,159.442383 133.290100,159.894287 132.831451,160.618317 
	C131.719086,160.924118 130.715714,160.957840 129.343445,161.071396 
	C128.609833,161.075226 128.245117,160.999207 127.564499,160.582001 
	C127.159103,159.822708 127.069611,159.404572 126.980118,158.986450 
	C127.931580,157.120575 128.883041,155.254684 129.991882,153.080170 
	C128.742966,153.080170 127.789597,153.080170 126.462669,152.666901 
	C126.176941,151.619751 126.264778,150.985886 126.697739,150.481293 
	C127.968315,150.558762 129.211395,150.873642 129.765747,150.393433 
	C132.590149,147.946854 135.236435,145.294647 137.945053,142.714417 
	C138.638596,142.806122 139.332123,142.897827 140.284393,143.360825 
	C140.289597,144.767029 140.036057,145.801971 139.782516,146.836899 
	C139.782516,146.836899 139.848282,146.923264 139.618210,146.969543 
	C139.303894,147.337936 139.219650,147.660065 139.135406,147.982178 
	C139.135406,147.982178 138.876373,148.301910 138.856033,148.506332 
	C138.205612,149.812637 137.575531,150.914520 136.656479,152.582184 
	C136.117798,154.021896 135.868103,154.895828 135.618408,155.769760 
	C135.618393,155.769760 135.524948,155.724609 135.472168,155.727417 
	C134.963669,156.615143 134.507935,157.500076 134.020813,158.687744 
z"/>
<path fill="#F8F9F8" opacity="1.000000" stroke="none" 
	d="
M106.998871,141.981339 
	C109.638161,142.068802 109.638161,142.068802 110.473206,147.176956 
	C113.957397,145.841599 115.015617,140.000778 120.620781,141.952362 
	C120.995071,141.995407 120.997246,141.996704 120.992065,142.246521 
	C120.986893,142.496338 120.988205,142.996017 120.911705,143.102844 
	C120.835205,143.209671 120.573105,143.190750 120.244965,143.205444 
	C119.621964,143.518372 119.327103,143.816589 118.857079,144.365601 
	C118.123581,145.411255 117.565239,146.206131 116.775925,147.126556 
	C116.386238,147.555832 116.227524,147.859573 116.040237,148.378891 
	C116.011665,148.594467 115.859703,149.001984 115.654800,149.139923 
	C115.201714,149.522339 115.074219,149.818756 115.078758,150.364532 
	C115.090103,150.561951 115.127808,150.955612 114.784325,150.968231 
	C113.805756,151.582825 113.032806,152.095139 112.568863,152.808441 
	C111.921890,153.803131 111.505936,154.948074 110.762665,155.857971 
	C109.950111,154.807556 109.365997,153.927887 108.675400,152.942841 
	C108.568924,152.837479 108.583786,152.538254 108.709908,152.107849 
	C108.223648,148.445404 107.611259,145.213379 106.998871,141.981339 
z"/>
<path fill="#F4F3EC" opacity="1.000000" stroke="none" 
	d="
M137.669495,142.495789 
	C135.236435,145.294647 132.590149,147.946854 129.765747,150.393433 
	C129.211395,150.873642 127.968315,150.558762 126.703705,150.366882 
	C126.364540,150.123184 126.175064,149.990097 126.162613,149.678986 
	C125.853821,148.856064 125.557480,148.344269 125.183662,147.930328 
	C125.106186,148.028198 125.288277,147.857361 125.319397,147.636505 
	C125.350525,147.415634 125.483467,146.989807 125.686096,146.782196 
	C126.261658,145.723557 126.634590,144.872513 127.007523,144.021469 
	C127.007523,144.021469 127.496315,144.020599 127.851273,144.234848 
	C128.405273,144.719345 128.663696,144.908463 128.981506,145.016464 
	C129.888168,144.866592 130.839508,144.843018 131.692413,144.541199 
	C133.618759,143.859528 135.496460,143.040375 137.669495,142.495789 
z"/>
<path fill="#F7EFD8" opacity="1.000000" stroke="none" 
	d="
M106.668167,141.970642 
	C107.611259,145.213379 108.223648,148.445404 108.528915,151.772156 
	C107.306427,148.936783 106.391037,146.006668 105.459312,143.024292 
	C100.341156,143.084259 99.143433,146.601761 98.573959,150.749725 
	C97.587379,150.456329 96.858337,150.294556 96.129288,150.132767 
	C96.129288,150.132767 96.034607,150.032318 95.987923,149.980377 
	C96.656693,148.691254 97.761406,147.527908 98.012779,146.202698 
	C98.698257,142.588791 100.869583,141.539444 104.601944,141.886124 
	C105.459602,141.873016 105.898537,141.916473 106.668167,141.970642 
z"/>
<path fill="#F8F9F8" opacity="1.000000" stroke="none" 
	d="
M126.999290,143.639450 
	C126.634590,144.872513 126.261658,145.723557 125.501617,146.460114 
	C124.064919,145.269974 123.015320,144.194321 122.002487,143.013184 
	C122.039253,142.907715 122.046707,142.684448 121.909935,142.518158 
	C121.547318,142.161850 121.288673,142.043457 120.997246,141.996704 
	C120.997246,141.996704 120.995071,141.995407 120.987488,141.987762 
	C121.469681,140.263657 121.959473,138.547195 122.449257,136.830734 
	C123.025032,136.856476 123.600800,136.882202 124.176575,136.907944 
	C125.114731,139.024445 126.052895,141.140930 126.999290,143.639450 
z"/>
<path fill="#F2F2F4" opacity="1.000000" stroke="none" 
	d="
M138.570435,105.041000 
	C138.339767,104.176567 138.534454,103.308128 138.888779,102.219055 
	C140.267899,102.347084 141.487381,102.695740 142.706879,103.044395 
	C142.686417,103.519791 142.665955,103.995178 142.645493,104.470566 
	C141.428925,104.659378 140.212372,104.848183 138.570435,105.041000 
z"/>
<path fill="#F2F2F4" opacity="1.000000" stroke="none" 
	d="
M140.551422,97.005066 
	C140.344742,96.179932 140.477814,95.348068 140.801971,94.258102 
	C142.150208,94.264709 143.307373,94.529419 144.464539,94.794136 
	C144.462051,95.121521 144.459564,95.448906 144.457077,95.776299 
	C143.268433,96.183647 142.079803,96.590988 140.551422,97.005066 
z"/>
<path fill="#F4F3EC" opacity="1.000000" stroke="none" 
	d="
M140.177795,146.884338 
	C140.036057,145.801971 140.289597,144.767029 140.629700,143.420349 
	C141.442444,143.765167 142.168610,144.421738 142.894791,145.078293 
	C142.120880,145.696121 141.346970,146.313950 140.177795,146.884338 
z"/>
<path fill="#F8F9F8" opacity="1.000000" stroke="none" 
	d="
M114.464935,139.609558 
	C114.349083,140.058319 114.066391,140.333435 113.765755,140.587311 
	C113.758049,140.593811 113.553413,140.367111 113.440628,140.249161 
	C113.725662,139.977158 114.010704,139.705154 114.464935,139.609558 
z"/>
<path fill="#F4F3EC" opacity="1.000000" stroke="none" 
	d="
M139.342651,147.850800 
	C139.219650,147.660065 139.303894,147.337936 139.625519,146.915741 
	C139.905716,147.167969 139.801376,147.469208 139.342651,147.850800 
z"/>
<path fill="#F8F9F8" opacity="1.000000" stroke="none" 
	d="
M128.879517,144.793060 
	C128.663696,144.908463 128.405273,144.719345 128.095673,144.232544 
	C128.315247,144.106094 128.579391,144.290649 128.879517,144.793060 
z"/>
<path fill="#F4F3EC" opacity="1.000000" stroke="none" 
	d="
M144.448639,143.533463 
	C144.415237,143.477753 144.482025,143.589172 144.448639,143.533463 
z"/>
<path fill="#CD7735" opacity="1.000000" stroke="none" 
	d="
M34.815434,112.205322 
	C34.603741,113.567177 34.049145,115.061462 33.251209,116.792091 
	C33.496086,115.464867 33.984306,113.901306 34.815434,112.205322 
z"/>
<path fill="#CD7735" opacity="1.000000" stroke="none" 
	d="
M35.922298,110.225784 
	C36.038883,110.683456 35.847385,111.251854 35.391338,111.975708 
	C35.289265,111.532944 35.451740,110.934731 35.922298,110.225784 
z"/>
<path fill="#CD7735" opacity="1.000000" stroke="none" 
	d="
M36.803398,109.118973 
	C36.924046,109.343025 36.792294,109.670822 36.406784,110.097130 
	C36.285683,109.871330 36.418343,109.547035 36.803398,109.118973 
z"/>
<path fill="#CD7735" opacity="1.000000" stroke="none" 
	d="
M37.673195,108.058777 
	C37.770374,108.257553 37.641541,108.568321 37.267258,108.968102 
	C37.163601,108.761665 37.305386,108.466217 37.673195,108.058777 
z"/>
<path fill="#23245E" opacity="1.000000" stroke="none" 
	d="
M81.633011,175.908554 
	C81.658432,174.582397 82.007660,173.180862 82.369499,171.728653 
	C87.640625,172.227051 92.672462,172.702805 97.915634,173.548370 
	C94.182320,173.813507 90.226334,173.499374 86.298813,173.711716 
	C84.817581,173.791779 83.402206,175.090149 81.633011,175.908554 
z"/>
<path fill="#FEFEFE" opacity="1.000000" stroke="none" 
	d="
M78.288116,184.020782 
	C78.082161,183.797562 78.208183,183.530930 78.593369,183.168427 
	C78.695396,183.336502 78.617912,183.638123 78.288116,184.020782 
z"/>
<path fill="#E36C1A" opacity="1.000000" stroke="none" 
	d="
M98.831482,150.881332 
	C99.143433,146.601761 100.341156,143.084259 105.459312,143.024292 
	C106.391037,146.006668 107.306427,148.936783 108.402802,152.202576 
	C108.583786,152.538254 108.568924,152.837479 108.671791,153.349091 
	C108.450401,155.831726 108.126152,157.802734 107.801895,159.773743 
	C107.801895,159.773743 107.934830,159.853165 107.570953,159.795563 
	C106.486374,160.158569 105.765671,160.579193 105.044960,160.999802 
	C104.758888,161.033234 104.474335,161.076599 103.979195,161.170380 
	C102.490990,159.052505 101.214874,156.894180 100.252266,154.322449 
	C101.320824,153.698761 102.075874,153.488464 102.249466,153.440109 
	C100.478012,152.113953 99.654747,151.497650 98.831482,150.881332 
z"/>
<path fill="#DB7229" opacity="1.000000" stroke="none" 
	d="
M126.175064,149.990097 
	C126.175064,149.990097 126.364540,150.123184 126.358574,150.237610 
	C126.264778,150.985886 126.176941,151.619751 126.097900,152.733032 
	C124.695518,154.292435 123.284340,155.372406 121.873161,156.452377 
	C121.165314,155.383453 120.457474,154.314514 119.286911,152.776367 
	C117.592064,151.856628 116.359940,151.406113 115.127808,150.955612 
	C115.127808,150.955612 115.090103,150.561951 115.324295,150.255890 
	C115.658897,149.633865 115.759300,149.317932 115.859703,149.001984 
	C115.859703,149.001984 116.011665,148.594467 116.301697,148.276001 
	C116.730118,147.638702 116.868507,147.319855 117.006897,147.001007 
	C117.565239,146.206131 118.123581,145.411255 119.162262,144.302734 
	C119.952782,143.722992 120.262939,143.456863 120.573105,143.190750 
	C120.573105,143.190750 120.835205,143.209671 121.190384,143.072418 
	C121.712608,142.851608 121.879662,142.768036 122.046707,142.684448 
	C122.046707,142.684448 122.039253,142.907715 122.034943,143.305939 
	C123.116516,145.088547 124.202393,146.472961 125.288277,147.857361 
	C125.288277,147.857361 125.106186,148.028198 125.031754,148.188019 
	C125.363235,148.895248 125.769150,149.442673 126.175064,149.990097 
z"/>
<path fill="#F7F6DE" opacity="1.000000" stroke="none" 
	d="
M114.784325,150.968231 
	C116.359940,151.406113 117.592064,151.856628 118.994675,152.596237 
	C117.602043,154.405579 116.038925,155.925827 113.887756,157.715332 
	C112.530190,157.332642 111.760658,156.680679 110.991119,156.028717 
	C111.505936,154.948074 111.921890,153.803131 112.568863,152.808441 
	C113.032806,152.095139 113.805756,151.582825 114.784325,150.968231 
z"/>
<path fill="#F7EFD8" opacity="1.000000" stroke="none" 
	d="
M110.762672,155.857971 
	C111.760658,156.680679 112.530190,157.332642 113.652893,157.989868 
	C114.451614,158.822830 114.897156,159.650528 115.537033,160.839249 
	C112.984642,160.500504 110.805489,160.211304 108.214111,159.847916 
	C108.126152,157.802734 108.450401,155.831726 108.778275,153.454468 
	C109.365997,153.927887 109.950111,154.807556 110.762672,155.857971 
z"/>
<path fill="#F7EFD8" opacity="1.000000" stroke="none" 
	d="
M105.390282,161.014664 
	C105.765671,160.579193 106.486374,160.158569 107.530182,159.729736 
	C107.147392,160.157532 106.441498,160.593521 105.390282,161.014664 
z"/>
<path fill="#ECECE1" opacity="1.000000" stroke="none" 
	d="
M126.707367,159.020477 
	C127.069611,159.404572 127.159103,159.822708 127.285690,160.561523 
	C127.026718,160.272964 126.730659,159.663727 126.707367,159.020477 
z"/>
<path fill="#E16E23" opacity="1.000000" stroke="none" 
	d="
M81.209366,160.927658 
	C79.951721,160.913452 78.892677,160.825974 77.437416,160.793488 
	C77.041206,160.848495 76.779610,160.708115 76.627380,160.440018 
	C76.469711,159.546204 76.464256,158.920486 76.458809,158.294769 
	C76.458809,158.294769 76.134338,158.107437 76.556953,158.072250 
	C77.920959,156.345871 78.862350,154.654663 79.803749,152.963470 
	C79.803749,152.963470 80.096352,152.666077 80.134903,152.461273 
	C80.864655,149.473785 85.424149,147.367554 80.392273,143.396118 
	C84.969551,143.396118 88.293877,143.396118 92.244690,143.396118 
	C91.029411,144.939865 90.096489,146.124924 89.118958,147.665924 
	C88.437111,149.128632 87.799873,150.235382 87.171173,151.662308 
	C85.540993,154.773163 83.902275,157.563858 82.046486,160.624435 
	C81.829414,160.894333 81.407951,160.854385 81.209366,160.927658 
z"/>
<path fill="#F7F2E2" opacity="1.000000" stroke="none" 
	d="
M58.333775,162.453354 
	C60.426273,161.832001 62.817093,161.453934 65.604073,161.039398 
	C64.281212,164.773758 61.155838,162.426590 58.333775,162.453354 
z"/>
<path fill="#F7EFD8" opacity="1.000000" stroke="none" 
	d="
M79.463280,153.015289 
	C78.862350,154.654663 77.920959,156.345871 76.705215,158.186752 
	C77.328186,156.580002 78.225502,154.823547 79.463280,153.015289 
z"/>
<path fill="#F7EFD8" opacity="1.000000" stroke="none" 
	d="
M70.894592,151.945816 
	C70.470306,150.719543 70.105186,149.093155 70.010788,147.256500 
	C70.505600,148.546066 70.729691,150.045883 70.894592,151.945816 
z"/>
<path fill="#F7EFD8" opacity="1.000000" stroke="none" 
	d="
M76.113281,158.345367 
	C76.464256,158.920486 76.469711,159.546204 76.486588,160.487030 
	C76.254593,160.000076 76.011177,159.198013 76.113281,158.345367 
z"/>
<path fill="#F7EFD8" opacity="1.000000" stroke="none" 
	d="
M71.612572,155.707657 
	C71.286507,155.205185 71.140350,154.475891 71.004227,153.372650 
	C71.273666,153.826065 71.533073,154.653458 71.612572,155.707657 
z"/>
<path fill="#EDCA81" opacity="1.000000" stroke="none" 
	d="
M98.573959,150.749725 
	C99.654747,151.497650 100.478012,152.113953 102.249466,153.440109 
	C102.075874,153.488464 101.320824,153.698761 100.268433,153.959518 
	C97.833961,154.020035 95.463005,154.328354 96.072067,150.520599 
	C96.858337,150.294556 97.587379,150.456329 98.573959,150.749725 
z"/>
<path fill="#1E1D80" opacity="1.000000" stroke="none" 
	d="
M71.007378,212.009567 
	C70.906715,212.045609 70.798149,212.071960 70.834724,212.041138 
	C70.979874,211.983978 70.999466,211.999878 71.007378,212.009567 
z"/>
<path fill="#ECECE1" opacity="1.000000" stroke="none" 
	d="
M135.980469,155.655334 
	C135.868103,154.895828 136.117798,154.021896 136.613342,152.900818 
	C136.686981,153.616089 136.514755,154.578506 135.980469,155.655334 
z"/>
<path fill="#FBFCFC" opacity="1.000000" stroke="none" 
	d="
M153.443390,150.523560 
	C153.408768,150.467316 153.478027,150.579803 153.443390,150.523560 
z"/>
<path fill="#F7F6DE" opacity="1.000000" stroke="none" 
	d="
M115.654800,149.139923 
	C115.759300,149.317932 115.658897,149.633865 115.312958,150.058472 
	C115.074219,149.818756 115.201714,149.522339 115.654800,149.139923 
z"/>
<path fill="#F7F6DE" opacity="1.000000" stroke="none" 
	d="
M116.775932,147.126556 
	C116.868507,147.319855 116.730118,147.638702 116.330261,148.060425 
	C116.227524,147.859573 116.386238,147.555832 116.775932,147.126556 
z"/>
<path fill="#F7F6DE" opacity="1.000000" stroke="none" 
	d="
M120.244965,143.205444 
	C120.262939,143.456863 119.952782,143.722992 119.337433,144.051956 
	C119.327103,143.816589 119.621964,143.518372 120.244965,143.205444 
z"/>
<path fill="#F7F6DE" opacity="1.000000" stroke="none" 
	d="
M121.909935,142.518158 
	C121.879662,142.768036 121.712608,142.851608 121.266884,142.965591 
	C120.988205,142.996017 120.986893,142.496338 120.992065,142.246521 
	C121.288673,142.043457 121.547318,142.161850 121.909935,142.518158 
z"/>
<path fill="#D8742D" opacity="1.000000" stroke="none" 
	d="
M125.319397,147.636505 
	C124.202393,146.472961 123.116516,145.088547 121.998169,143.411407 
	C123.015320,144.194321 124.064919,145.269974 125.298996,146.667725 
	C125.483467,146.989807 125.350525,147.415634 125.319397,147.636505 
z"/>
<path fill="#D8742D" opacity="1.000000" stroke="none" 
	d="
M126.162613,149.678986 
	C125.769150,149.442673 125.363235,148.895248 125.109238,148.090149 
	C125.557480,148.344269 125.853821,148.856064 126.162613,149.678986 
z"/>
</svg>